<?xml version="1.0" encoding="utf-8"?>
<!-- Generator: Adobe Illustrator 26.0.1, SVG Export Plug-In . SVG Version: 6.00 Build 0)  -->
<svg version="1.1" id="Layer_1" xmlns="http://www.w3.org/2000/svg" xmlns:xlink="http://www.w3.org/1999/xlink" x="0px" y="0px"
	 width="580.5px" height="233.1px" viewBox="0 0 580.5 233.1" style="enable-background:new 0 0 580.5 233.1;" xml:space="preserve"
	>
<style type="text/css">
	.st0{fill:white;}
</style>
<g>
	<polygon class="st0" points="57.7,96.1 57.7,115.3 76.9,115.3 96.1,115.3 96.1,96.1 76.9,96.1 76.9,76.9 57.7,76.9 	"/>
	<polygon class="st0" points="76.9,153.8 57.7,153.8 57.7,173 76.9,173 96.1,173 115.3,173 115.3,153.8 96.1,153.8 	"/>
	<polygon class="st0" points="115.3,134.6 115.3,153.8 134.6,153.8 134.6,134.6 134.6,115.3 115.3,115.3 96.1,115.3 96.1,134.6 	"/>
	<polygon class="st0" points="96.1,57.7 76.9,57.7 76.9,76.9 96.1,76.9 115.3,76.9 134.6,76.9 134.6,57.7 115.3,57.7 	"/>
	<path class="st0" d="M182.8,98.5c-22.2,0-36.2,15.9-36.2,38.4c0,22.1,14.1,38.5,36.2,38.5c22,0,35.9-16.5,35.9-38.5
		C218.8,114.4,204.8,98.5,182.8,98.5z M182.7,160.7c-11.2,0-18.3-8.8-18.3-23.7c0-14.8,7.1-23.6,18.3-23.6
		c11.2,0,18.2,8.8,18.2,23.6C200.9,151.8,193.9,160.7,182.7,160.7z"/>
	<path class="st0" d="M273,98.3c-8.8,0-18,3.3-24,13.1l0-10.9l-18.2,0l0.1,72.5l18.2,0l0-37.1c0-14.1,8-22.8,17.7-22.8
		c9.1,0,14.5,6.9,14.5,21.4l0,38.5l18.2,0l0-44.6C299.4,110.1,289.7,98.3,273,98.3z"/>
	<path class="st0" d="M365.7,100.6l0,9.8c-5.1-8.3-12-12-21.8-12c-20.8,0-32.4,16.6-32.3,38.3c0,22.2,12.3,38.6,32.1,38.6
		c10.5,0,17.9-4.6,22-11.8l0,9.5l18.2,0l-0.1-72.5L365.7,100.6z M347.7,160.5c-11.4,0-18.7-9-18.7-23.9c0-14.8,7.1-23.5,18.4-23.5
		c10.6,0,18.3,7.6,18.3,19.9l0,6.5C365.7,152.8,358.1,160.5,347.7,160.5z"/>
	<path class="st0" d="M429.9,101.1c-5.2,2.5-9.6,7.5-12.5,13.1l0-13.7l-17.5,0l0.1,72.5l18.2,0l0-30.9c0-15,8.7-24.9,23.1-24.9
		l2.3,0l0-18.5C438,98.8,433.9,99.3,429.9,101.1z"/>
	<path class="st0" d="M522.8,100.5l-18.2,0l0,9.8c-5.1-8.3-12-12-21.8-12c-20.8,0-32.4,16.6-32.3,38.3c0,22.2,12.3,38.6,32.1,38.6
		c10.5,0,17.9-4.6,22-11.7l0,9.5l18.2,0L522.8,100.5z M486.7,160.4c-11.4,0-18.7-9-18.7-23.9c0-14.8,7.1-23.5,18.4-23.5
		c10.6,0,18.3,7.6,18.3,19.9l0,6.5C504.7,152.7,497.1,160.4,486.7,160.4z"/>
</g>
</svg>
